<mxfile host="Electron" agent="Mozilla/5.0 (Windows NT 10.0; Win64; x64) AppleWebKit/537.36 (KHTML, like Gecko) draw.io/28.0.6 Chrome/138.0.7204.100 Electron/37.2.3 Safari/537.36" version="28.0.6">
  <diagram name="第 1 页" id="0B_7ReDcwzLfg1DkNYcj">
    <mxGraphModel dx="1213" dy="828" grid="1" gridSize="10" guides="1" tooltips="1" connect="1" arrows="1" fold="1" page="1" pageScale="1" pageWidth="827" pageHeight="1169" math="0" shadow="0">
      <root>
        <mxCell id="0" />
        <mxCell id="1" parent="0" />
        <mxCell id="tOPBdZsIhoRsYZba9BeE-1" value="Actor" style="shape=umlActor;verticalLabelPosition=bottom;verticalAlign=top;html=1;outlineConnect=0;" parent="1" vertex="1">
          <mxGeometry x="80" y="610" width="30" height="60" as="geometry" />
        </mxCell>
        <mxCell id="tOPBdZsIhoRsYZba9BeE-2" value="" style="rounded=0;whiteSpace=wrap;html=1;" parent="1" vertex="1">
          <mxGeometry x="190" y="70" width="530" height="1080" as="geometry" />
        </mxCell>
        <mxCell id="tOPBdZsIhoRsYZba9BeE-3" value="&lt;font style=&quot;font-size: 26px;&quot;&gt;添加学生&lt;/font&gt;" style="rounded=0;whiteSpace=wrap;html=1;" parent="1" vertex="1">
          <mxGeometry x="294" y="110" width="356" height="50" as="geometry" />
        </mxCell>
        <mxCell id="tOPBdZsIhoRsYZba9BeE-4" value="&lt;font style=&quot;font-size: 26px;&quot;&gt;删除学生&lt;/font&gt;" style="rounded=0;whiteSpace=wrap;html=1;" parent="1" vertex="1">
          <mxGeometry x="294" y="190" width="356" height="50" as="geometry" />
        </mxCell>
        <mxCell id="tOPBdZsIhoRsYZba9BeE-5" value="&lt;span style=&quot;font-size: 26px;&quot;&gt;查找学生&lt;/span&gt;" style="rounded=0;whiteSpace=wrap;html=1;" parent="1" vertex="1">
          <mxGeometry x="294" y="270" width="356" height="50" as="geometry" />
        </mxCell>
        <mxCell id="tOPBdZsIhoRsYZba9BeE-6" value="&lt;span style=&quot;font-size: 26px;&quot;&gt;修改学生&lt;/span&gt;" style="rounded=0;whiteSpace=wrap;html=1;" parent="1" vertex="1">
          <mxGeometry x="294" y="350" width="356" height="50" as="geometry" />
        </mxCell>
        <mxCell id="tOPBdZsIhoRsYZba9BeE-7" value="&lt;span style=&quot;font-size: 26px;&quot;&gt;对指定学生录入分数&lt;/span&gt;" style="rounded=0;whiteSpace=wrap;html=1;" parent="1" vertex="1">
          <mxGeometry x="294" y="480" width="356" height="50" as="geometry" />
        </mxCell>
        <mxCell id="tOPBdZsIhoRsYZba9BeE-8" value="&lt;span style=&quot;font-size: 26px;&quot;&gt;修改指定学生单科分数&lt;/span&gt;" style="rounded=0;whiteSpace=wrap;html=1;" parent="1" vertex="1">
          <mxGeometry x="294" y="560" width="356" height="50" as="geometry" />
        </mxCell>
        <mxCell id="tOPBdZsIhoRsYZba9BeE-10" value="&lt;span style=&quot;font-size: 26px;&quot;&gt;计算指定学生的平均分&lt;/span&gt;" style="rounded=0;whiteSpace=wrap;html=1;" parent="1" vertex="1">
          <mxGeometry x="294" y="640" width="356" height="50" as="geometry" />
        </mxCell>
        <mxCell id="tOPBdZsIhoRsYZba9BeE-11" value="&lt;span style=&quot;font-size: 26px;&quot;&gt;计算全班单科平均分&lt;/span&gt;" style="rounded=0;whiteSpace=wrap;html=1;" parent="1" vertex="1">
          <mxGeometry x="294" y="740" width="356" height="50" as="geometry" />
        </mxCell>
        <mxCell id="tOPBdZsIhoRsYZba9BeE-12" value="&lt;span style=&quot;font-size: 26px;&quot;&gt;班级排名&lt;/span&gt;" style="rounded=0;whiteSpace=wrap;html=1;" parent="1" vertex="1">
          <mxGeometry x="294" y="820" width="356" height="50" as="geometry" />
        </mxCell>
        <mxCell id="tOPBdZsIhoRsYZba9BeE-13" value="&lt;span style=&quot;font-size: 26px;&quot;&gt;载入数据&lt;/span&gt;" style="rounded=0;whiteSpace=wrap;html=1;" parent="1" vertex="1">
          <mxGeometry x="294" y="960" width="356" height="50" as="geometry" />
        </mxCell>
        <mxCell id="tOPBdZsIhoRsYZba9BeE-14" value="&lt;span style=&quot;font-size: 26px;&quot;&gt;自动保存数据&lt;/span&gt;" style="rounded=0;whiteSpace=wrap;html=1;" parent="1" vertex="1">
          <mxGeometry x="294" y="1040" width="356" height="50" as="geometry" />
        </mxCell>
      </root>
    </mxGraphModel>
  </diagram>
</mxfile>
